<svg width="60" height="60" fill="none" xmlns="http://www.w3.org/2000/svg"><path d="M27.041 1.677a6 6 0 015.918 0l10.091 5.72 10 5.88a6 6 0 012.958 5.124L56.1 30l-.092 11.6a6 6 0 01-2.959 5.124l-9.999 5.88-10.091 5.72a6 6 0 01-5.918 0l-10.091-5.72-10-5.88a6 6 0 01-2.958-5.125L3.9 30l.092-11.6a6 6 0 012.959-5.124l9.999-5.88 10.091-5.72z" fill="url(#paint0_linear_56_158)"/><rect x="27.692" y="26.769" width="5.538" height="24.923" rx="2.769" fill="#fff"/><rect x="33.584" y="28.154" width="5.538" height="24.923" rx="2.769" transform="rotate(120 33.584 28.154)" fill="#fff"/><rect x="30.462" y="32.95" width="5.538" height="24.923" rx="2.769" transform="rotate(-120 30.462 32.95)" fill="#fff"/><defs><linearGradient id="paint0_linear_56_158" x1="0" y1="30" x2="60" y2="30" gradientUnits="userSpaceOnUse"><stop stop-color="#1D2D64"/><stop offset=".541" stop-color="#3268B8"/><stop offset="1" stop-color="#449BFF"/></linearGradient></defs></svg>