<svg width="88" height="308" fill="none" xmlns="http://www.w3.org/2000/svg"><circle opacity=".15" cx="4" cy="304" r="4" transform="rotate(-90 4 304)" fill="#4299FF"/><circle opacity=".15" cx="4" cy="284" r="4" transform="rotate(-90 4 284)" fill="#4299FF"/><circle opacity=".15" cx="4" cy="264" r="4" transform="rotate(-90 4 264)" fill="#4299FF"/><circle opacity=".15" cx="4" cy="244" r="4" transform="rotate(-90 4 244)" fill="#4299FF"/><circle opacity=".15" cx="4" cy="224" r="4" transform="rotate(-90 4 224)" fill="#4299FF"/><circle opacity=".15" cx="4" cy="204" r="4" transform="rotate(-90 4 204)" fill="#4299FF"/><circle opacity=".15" cx="4" cy="184" r="4" transform="rotate(-90 4 184)" fill="#4299FF"/><circle opacity=".15" cx="4" cy="164" r="4" transform="rotate(-90 4 164)" fill="#4299FF"/><circle opacity=".15" cx="4" cy="144" r="4" transform="rotate(-90 4 144)" fill="#4299FF"/><circle opacity=".15" cx="4" cy="124" r="4" transform="rotate(-90 4 124)" fill="#4299FF"/><circle opacity=".15" cx="4" cy="104" r="4" transform="rotate(-90 4 104)" fill="#4299FF"/><circle opacity=".15" cx="4" cy="84" r="4" transform="rotate(-90 4 84)" fill="#4299FF"/><circle opacity=".15" cx="4" cy="64" r="4" transform="rotate(-90 4 64)" fill="#4299FF"/><circle opacity=".15" cx="4" cy="44" r="4" transform="rotate(-90 4 44)" fill="#4299FF"/><circle opacity=".15" cx="4" cy="24" r="4" transform="rotate(-90 4 24)" fill="#4299FF"/><circle opacity=".15" cx="4" cy="4" r="4" transform="rotate(-90 4 4)" fill="#4299FF"/><circle opacity=".15" cx="24" cy="304" r="4" transform="rotate(-90 24 304)" fill="#4299FF"/><circle opacity=".15" cx="24" cy="284" r="4" transform="rotate(-90 24 284)" fill="#4299FF"/><circle opacity=".15" cx="24" cy="264" r="4" transform="rotate(-90 24 264)" fill="#4299FF"/><circle opacity=".15" cx="24" cy="244" r="4" transform="rotate(-90 24 244)" fill="#4299FF"/><circle opacity=".15" cx="24" cy="224" r="4" transform="rotate(-90 24 224)" fill="#4299FF"/><circle opacity=".15" cx="24" cy="204" r="4" transform="rotate(-90 24 204)" fill="#4299FF"/><circle opacity=".15" cx="24" cy="184" r="4" transform="rotate(-90 24 184)" fill="#4299FF"/><circle opacity=".15" cx="24" cy="164" r="4" transform="rotate(-90 24 164)" fill="#4299FF"/><circle opacity=".15" cx="24" cy="144" r="4" transform="rotate(-90 24 144)" fill="#4299FF"/><circle opacity=".15" cx="24" cy="124" r="4" transform="rotate(-90 24 124)" fill="#4299FF"/><circle opacity=".15" cx="24" cy="104" r="4" transform="rotate(-90 24 104)" fill="#4299FF"/><circle opacity=".15" cx="24" cy="84" r="4" transform="rotate(-90 24 84)" fill="#4299FF"/><circle opacity=".15" cx="24" cy="64" r="4" transform="rotate(-90 24 64)" fill="#4299FF"/><circle opacity=".15" cx="24" cy="44" r="4" transform="rotate(-90 24 44)" fill="#4299FF"/><circle opacity=".15" cx="24" cy="24" r="4" transform="rotate(-90 24 24)" fill="#4299FF"/><circle opacity=".15" cx="24" cy="4" r="4" transform="rotate(-90 24 4)" fill="#4299FF"/><circle opacity=".15" cx="44" cy="304" r="4" transform="rotate(-90 44 304)" fill="#4299FF"/><circle opacity=".15" cx="44" cy="284" r="4" transform="rotate(-90 44 284)" fill="#4299FF"/><circle opacity=".15" cx="44" cy="264" r="4" transform="rotate(-90 44 264)" fill="#4299FF"/><circle opacity=".15" cx="44" cy="244" r="4" transform="rotate(-90 44 244)" fill="#4299FF"/><circle opacity=".15" cx="44" cy="224" r="4" transform="rotate(-90 44 224)" fill="#4299FF"/><circle opacity=".15" cx="44" cy="204" r="4" transform="rotate(-90 44 204)" fill="#4299FF"/><circle opacity=".15" cx="44" cy="184" r="4" transform="rotate(-90 44 184)" fill="#4299FF"/><circle opacity=".15" cx="44" cy="164" r="4" transform="rotate(-90 44 164)" fill="#4299FF"/><circle opacity=".15" cx="44" cy="144" r="4" transform="rotate(-90 44 144)" fill="#4299FF"/><circle opacity=".15" cx="44" cy="124" r="4" transform="rotate(-90 44 124)" fill="#4299FF"/><circle opacity=".15" cx="44" cy="104" r="4" transform="rotate(-90 44 104)" fill="#4299FF"/><circle opacity=".15" cx="44" cy="84" r="4" transform="rotate(-90 44 84)" fill="#4299FF"/><circle opacity=".15" cx="44" cy="64" r="4" transform="rotate(-90 44 64)" fill="#4299FF"/><circle opacity=".15" cx="44" cy="44" r="4" transform="rotate(-90 44 44)" fill="#4299FF"/><circle opacity=".15" cx="44" cy="24" r="4" transform="rotate(-90 44 24)" fill="#4299FF"/><circle opacity=".15" cx="44" cy="4" r="4" transform="rotate(-90 44 4)" fill="#4299FF"/><circle opacity=".15" cx="64" cy="304" r="4" transform="rotate(-90 64 304)" fill="#4299FF"/><circle opacity=".15" cx="64" cy="284" r="4" transform="rotate(-90 64 284)" fill="#4299FF"/><circle opacity=".15" cx="64" cy="264" r="4" transform="rotate(-90 64 264)" fill="#4299FF"/><circle opacity=".15" cx="64" cy="244" r="4" transform="rotate(-90 64 244)" fill="#4299FF"/><circle opacity=".15" cx="64" cy="224" r="4" transform="rotate(-90 64 224)" fill="#4299FF"/><circle opacity=".15" cx="64" cy="204" r="4" transform="rotate(-90 64 204)" fill="#4299FF"/><circle opacity=".15" cx="64" cy="184" r="4" transform="rotate(-90 64 184)" fill="#4299FF"/><circle opacity=".15" cx="64" cy="164" r="4" transform="rotate(-90 64 164)" fill="#4299FF"/><circle opacity=".15" cx="64" cy="144" r="4" transform="rotate(-90 64 144)" fill="#4299FF"/><circle opacity=".15" cx="64" cy="124" r="4" transform="rotate(-90 64 124)" fill="#4299FF"/><circle opacity=".15" cx="64" cy="104" r="4" transform="rotate(-90 64 104)" fill="#4299FF"/><circle opacity=".15" cx="64" cy="84" r="4" transform="rotate(-90 64 84)" fill="#4299FF"/><circle opacity=".15" cx="64" cy="64" r="4" transform="rotate(-90 64 64)" fill="#4299FF"/><circle opacity=".15" cx="64" cy="44" r="4" transform="rotate(-90 64 44)" fill="#4299FF"/><circle opacity=".15" cx="64" cy="24" r="4" transform="rotate(-90 64 24)" fill="#4299FF"/><circle opacity=".15" cx="64" cy="4" r="4" transform="rotate(-90 64 4)" fill="#4299FF"/><circle opacity=".15" cx="84" cy="304" r="4" transform="rotate(-90 84 304)" fill="#4299FF"/><circle opacity=".15" cx="84" cy="284" r="4" transform="rotate(-90 84 284)" fill="#4299FF"/><circle opacity=".15" cx="84" cy="264" r="4" transform="rotate(-90 84 264)" fill="#4299FF"/><circle opacity=".15" cx="84" cy="244" r="4" transform="rotate(-90 84 244)" fill="#4299FF"/><circle opacity=".15" cx="84" cy="224" r="4" transform="rotate(-90 84 224)" fill="#4299FF"/><circle opacity=".15" cx="84" cy="204" r="4" transform="rotate(-90 84 204)" fill="#4299FF"/><circle opacity=".15" cx="84" cy="184" r="4" transform="rotate(-90 84 184)" fill="#4299FF"/><circle opacity=".15" cx="84" cy="164" r="4" transform="rotate(-90 84 164)" fill="#4299FF"/><circle opacity=".15" cx="84" cy="144" r="4" transform="rotate(-90 84 144)" fill="#4299FF"/><circle opacity=".15" cx="84" cy="124" r="4" transform="rotate(-90 84 124)" fill="#4299FF"/><circle opacity=".15" cx="84" cy="104" r="4" transform="rotate(-90 84 104)" fill="#4299FF"/><circle opacity=".15" cx="84" cy="84" r="4" transform="rotate(-90 84 84)" fill="#4299FF"/><circle opacity=".15" cx="84" cy="64" r="4" transform="rotate(-90 84 64)" fill="#4299FF"/><circle opacity=".15" cx="84" cy="44" r="4" transform="rotate(-90 84 44)" fill="#4299FF"/><circle opacity=".15" cx="84" cy="24" r="4" transform="rotate(-90 84 24)" fill="#4299FF"/><circle opacity=".15" cx="84" cy="4" r="4" transform="rotate(-90 84 4)" fill="#4299FF"/></svg>