<svg width="49" height="29" fill="none" xmlns="http://www.w3.org/2000/svg"><path opacity=".2" d="M49 6.517c0 7.18-15.5 6.5-24 19.5-5.5 8.412-25-5.82-25-13s11.193-13 25-13 24-.68 24 6.5z" fill="url(#paint0_linear_54_847)"/><g opacity=".8"><path d="M31 14c0 7.732-6.268 14-14 14S3 21.732 3 14 9.268 0 17 0s14 6.268 14 14zM6.833 14c0 5.615 4.552 10.167 10.167 10.167S27.167 19.615 27.167 14 22.615 3.833 17 3.833 6.833 8.385 6.833 14z" fill="url(#paint1_linear_54_847)"/><rect x="15.293" y="6.146" width="2.732" height="10.927" rx="1.366" fill="url(#paint2_linear_54_847)"/><rect x="21.925" y="17.551" width="2.732" height="6.655" rx="1.366" transform="rotate(121.702 21.925 17.551)" fill="url(#paint3_linear_54_847)"/></g><defs><linearGradient id="paint0_linear_54_847" x1="0" y1="14.299" x2="49" y2="14.299" gradientUnits="userSpaceOnUse"><stop stop-color="#1D2D64"/><stop offset=".541" stop-color="#3268B8"/><stop offset="1" stop-color="#449BFF"/></linearGradient><linearGradient id="paint1_linear_54_847" x1="3" y1="14" x2="31" y2="14" gradientUnits="userSpaceOnUse"><stop stop-color="#1D2D64"/><stop offset=".541" stop-color="#3268B8"/><stop offset="1" stop-color="#449BFF"/></linearGradient><linearGradient id="paint2_linear_54_847" x1="15.293" y1="11.61" x2="18.024" y2="11.61" gradientUnits="userSpaceOnUse"><stop stop-color="#1D2D64"/><stop offset=".541" stop-color="#3268B8"/><stop offset="1" stop-color="#449BFF"/></linearGradient><linearGradient id="paint3_linear_54_847" x1="21.925" y1="20.879" x2="24.656" y2="20.879" gradientUnits="userSpaceOnUse"><stop stop-color="#1D2D64"/><stop offset=".541" stop-color="#3268B8"/><stop offset="1" stop-color="#449BFF"/></linearGradient></defs></svg>