<svg width="60" height="60" fill="none" xmlns="http://www.w3.org/2000/svg"><path fill-rule="evenodd" clip-rule="evenodd" d="M.775 44.851c-.006 4.404 4.273 7.98 9.557 7.987l13.154.019c-.031.791-1.21 1.77-2.39 2.36h-3.588a2.392 2.392 0 000 4.783h23.918a2.392 2.392 0 000-4.784H37.84c-.784-.392-2.338-1.4-2.39-2.342l13.153.019c5.284.007 9.573-3.556 9.579-7.96V18.5c-.158-.665-.858-1.994-2.389-1.997-1.53-.002-2.234 1.326-2.395 1.99l.037 22.372c-4.51 0-5.707.001-6.305.002l-2.713-.002-16.265-.023-16.264-.024c-2.362-.003-2.384-.003-2.872.007-.386.007-1.063.02-3.414.04V15.358c.005-3.523 3.436-6.373 7.663-6.367l14.23-.004c.798 0 2.393-.396 2.395-1.99C29.891 5.72 28.297 5.134 27.5 5H10.4C5.116 4.992.827 8.556.82 12.96L.775 44.85zm28.692 3.19a2.392 2.392 0 100-4.784 2.392 2.392 0 000 4.784z" fill="#1D2D64"/><path fill-rule="evenodd" clip-rule="evenodd" d="M14.718 39h3.564c.224 0 .44-.074.614-.21a.946.946 0 00.342-.537l.404-1.785a7.874 7.874 0 001.502-.842l1.8.556c.212.066.442.06.65-.019a.972.972 0 00.495-.411l1.782-2.995a.936.936 0 00-.19-1.177l-1.394-1.235a7.474 7.474 0 000-1.684l1.395-1.235a.936.936 0 00.189-1.177l-1.782-2.995a.972.972 0 00-.494-.411 1.008 1.008 0 00-.65-.02l-1.8.556a8.106 8.106 0 00-1.503-.843l-.404-1.788a.946.946 0 00-.342-.538.998.998 0 00-.614-.21h-3.564a.998.998 0 00-.613.21.946.946 0 00-.342.538l-.4 1.788c-.26.109-.515.231-.763.366a8.151 8.151 0 00-.744.475l-1.799-.555a1.007 1.007 0 00-.65.019.971.971 0 00-.495.41L7.13 26.248a.932.932 0 00.189 1.178l1.395 1.232a7.466 7.466 0 000 1.684l-1.395 1.235a.932.932 0 00-.189 1.177l1.786 2.993a.972.972 0 00.494.411c.209.079.438.086.651.02l1.8-.556a7.9 7.9 0 001.502.843l.399 1.79a.947.947 0 00.342.536c.174.136.39.21.614.21zm1.782-3.563a5.937 5.937 0 100-11.874 5.937 5.937 0 000 11.875z" fill="#1D2D64"/><path d="M38.5 28.875l12.375-9.625h-6.861L44 4.125H33V19.25h-6.875L38.5 28.875z" stroke="#1D2D64" stroke-width="2" stroke-linecap="round" stroke-linejoin="round"/></svg>