<svg width="49" height="33" fill="none" xmlns="http://www.w3.org/2000/svg"><path opacity=".2" d="M49 10.517c0 7.18-15.5 6.5-24 19.5-5.5 8.412-25-5.82-25-13s11.193-13 25-13 24-.68 24 6.5z" fill="#FF8A00"/><g opacity=".8"><path d="M10.638 31.14c-.99 0-1.886-.215-2.688-.644a4.914 4.914 0 01-1.876-1.806c-.448-.765-.672-1.629-.672-2.59 0-.961.228-1.825.686-2.59a4.812 4.812 0 011.876-1.792c.802-.439 1.698-.658 2.688-.658.802 0 1.535.14 2.198.42.662.28 1.222.686 1.68 1.218l-1.176 1.106c-.71-.765-1.582-1.148-2.618-1.148-.672 0-1.274.15-1.806.448-.532.29-.948.695-1.246 1.218-.299.523-.448 1.115-.448 1.778s.149 1.255.448 1.778c.298.523.714.933 1.246 1.232.532.29 1.134.434 1.806.434 1.036 0 1.908-.387 2.618-1.162l1.176 1.12a4.46 4.46 0 01-1.694 1.218c-.663.28-1.396.42-2.198.42zM25.276 31l-.014-6.496-3.22 5.376h-.812l-3.22-5.292V31h-1.736v-9.8h1.498l3.892 6.496 3.822-6.496h1.498l.014 9.8h-1.722zm7.407.14a7.545 7.545 0 01-2.198-.322c-.7-.215-1.256-.5-1.666-.854l.63-1.414a5.09 5.09 0 001.47.784 5.55 5.55 0 001.764.294c.728 0 1.269-.117 1.624-.35.364-.233.546-.541.546-.924a.865.865 0 00-.308-.686 1.99 1.99 0 00-.756-.434 17.01 17.01 0 00-1.26-.35 15.093 15.093 0 01-1.82-.532 3.081 3.081 0 01-1.19-.826c-.327-.383-.49-.896-.49-1.54 0-.541.144-1.031.434-1.47.298-.448.742-.803 1.33-1.064.597-.261 1.325-.392 2.184-.392a7.05 7.05 0 011.764.224 4.9 4.9 0 011.498.644l-.574 1.414a5.666 5.666 0 00-1.344-.574 5.027 5.027 0 00-1.358-.196c-.719 0-1.256.121-1.61.364-.346.243-.518.565-.518.966 0 .28.098.509.294.686.205.177.462.317.77.42.308.103.728.22 1.26.35.728.168 1.325.345 1.792.532a2.95 2.95 0 011.19.826c.336.373.504.877.504 1.512a2.56 2.56 0 01-.448 1.47c-.29.439-.733.789-1.33 1.05-.598.261-1.326.392-2.184.392zm-21-15.253l-1.822.132a.515.515 0 01-.321-.084.48.48 0 01-.195-.258l-.27-.891a4.056 4.056 0 01-.798-.37l-.9.347a.521.521 0 01-.333.015.497.497 0 01-.268-.19L5.753 13.14a.468.468 0 01.054-.602l.668-.677a3.747 3.747 0 01-.062-.851l-.758-.572a.468.468 0 01-.14-.589l.801-1.58c.05-.1.134-.18.238-.227a.522.522 0 01.332-.034l.94.215c.116-.096.237-.186.363-.268.121-.078.247-.149.376-.214l.139-.919a.48.48 0 01.155-.284.515.515 0 01.306-.13l1.822-.132a.515.515 0 01.321.084.48.48 0 01.195.26l.272.89a4.193 4.193 0 01.799.37l.9-.348a.521.521 0 01.333-.014.49.49 0 01.268.19l1.02 1.448a.471.471 0 01-.053.603l-.668.676c.053.28.073.566.061.851l.759.573c.184.14.242.385.14.589l-.801 1.58a.497.497 0 01-.238.227.522.522 0 01-.332.034l-.94-.215a4.044 4.044 0 01-.737.482l-.141.918a.48.48 0 01-.156.284.515.515 0 01-.306.129zm-1.4-6.661a2.05 2.05 0 00-1.375.665c-.35.388-.525.892-.488 1.402.037.51.283.983.685 1.316a2.05 2.05 0 001.457.46 2.051 2.051 0 001.375-.665 1.89 1.89 0 00.487-1.401 1.889 1.889 0 00-.684-1.317 2.05 2.05 0 00-1.457-.46z" fill="#FF8A00"/><g clip-path="url(#clip0_54_421)"><path d="M17.388 17.334l-1.63-1.971a.703.703 0 01-.012-.881l.838-1.064a5.621 5.621 0 01-.207-1.228l-1.14-.733a.703.703 0 01-.278-.836l.889-2.399a.707.707 0 01.757-.45l1.342.19c.29-.3.611-.565.96-.794l.063-1.352a.707.707 0 01.585-.66l2.522-.427a.702.702 0 01.77.431l.505 1.257c.207.051.412.113.611.187.19.073.377.156.558.249l1.202-.622a.702.702 0 01.863.176l1.63 1.97a.703.703 0 01.01.882l-.834 1.066a5.76 5.76 0 01.207 1.228l1.14.733a.703.703 0 01.278.836l-.892 2.397a.707.707 0 01-.757.45l-1.342-.189c-.29.299-.612.565-.96.794l-.065 1.353a.708.708 0 01-.585.66l-2.522.426a.703.703 0 01-.769-.43l-.506-1.257a5.604 5.604 0 01-1.166-.434l-1.203.618a.703.703 0 01-.862-.176zm6.763-7.257a2.81 2.81 0 10-4.332 3.583 2.81 2.81 0 004.332-3.583z" fill="#FF8A00"/></g></g><defs><clipPath id="clip0_54_421"><path fill="#fff" transform="rotate(50.406 11.555 24.552)" d="M0 0h16.862v16.862H0z"/></clipPath></defs></svg>