<svg width="49" height="29" fill="none" xmlns="http://www.w3.org/2000/svg"><path opacity=".2" d="M49 6.517c0 7.18-15.5 6.5-24 19.5-5.5 8.412-25-5.82-25-13s11.193-13 25-13 24-.68 24 6.5z" fill="#FF8A00"/><g opacity=".8" fill="#FF8A00"><path d="M23.105 14.061V9.43c-.096-.354-.424-1.197-.965-1.737-.54-.54-3.506-3.442-4.92-4.825C16.93 2.578 16.08 2 15 2H7.377C6.251 2.032 4 2.733 4 5.28v18.141c0 1.158.656 3.474 3.28 3.474h7.913c-.418-.354-1.312-1.235-1.544-1.93H7.57c-.547-.032-1.64-.386-1.64-1.544s-.064-12.319-.097-17.754c0-.58.406-1.737 2.027-1.737h6.947c.225 0 .675.27.675 1.35v3.57c-.032.258.136.773 1.062.773h3.473c.387 0 1.158.154 1.158.772v3.088c.515.064 1.622.27 1.93.578z"/><path d="M8.535 19.272h4.342c-.096.354-.29 1.235-.29 1.93H8.536c-.29-.032-.868-.251-.868-.869 0-.772.482-1.061.868-1.061zm0-3.86h6.658c-.482.418-1.467 1.39-1.544 1.93H8.535c-.29-.032-.868-.25-.868-.868 0-.772.482-1.062.868-1.062zm0-3.859h9.939c.29 0 .868.212.868 1.061 0 .675-.675.868-.868.868H8.535c-.29-.032-.868-.25-.868-.868 0-.772.482-1.061.868-1.061z"/><path fill-rule="evenodd" clip-rule="evenodd" d="M20.21 26.895a5.79 5.79 0 100-11.58 5.79 5.79 0 000 11.58zm-.964-6.755v-2.798h1.93v2.798h2.894v1.93h-2.895v2.798h-1.93V22.07h-2.798v-1.93h2.799z"/></g></svg>