<svg width="49" height="29" fill="none" xmlns="http://www.w3.org/2000/svg"><path opacity=".2" d="M49 6.517c0 7.18-15.5 6.5-24 19.5-5.5 8.412-25-5.82-25-13s11.193-13 25-13 24-.68 24 6.5z" fill="#FF8A00"/><g opacity=".8" fill="#FF8A00"><path fill-rule="evenodd" clip-rule="evenodd" d="M10.116 20.01c-2.08-.47-6.216-2.789-6.114-8.293C4.104 6.213 8.12 4.28 10.116 4h8.392c2.191.331 6.564 2.339 6.523 7.717-.051 6.723-4.144 8.293-9.286 8.293l-3.94 4.369c-.495.174-1.525.256-1.689-.811V20.01zm9.568-10.516H9.272c-.154.035-.46.188-.46.523 0 .418.306.593.46.628h10.412c.17-.07.512-.288.512-.602 0-.398-.341-.532-.512-.55zm-4.093 4.16H9.272c-.154.034-.46.188-.46.522 0 .419.306.593.46.628h6.319c.17-.07.512-.288.512-.601 0-.398-.341-.532-.512-.55z"/><path d="M16.077 21.737l.333-.367c1.44.253 4.845.189 6.933-2.092 2.087-2.282 2.865-5.363 2.993-6.619 2.021.506 5.725 2.862 4.375 8.24-.88 2.554-3.113 3.576-4.12 3.768v2.694c-.178.358-.726.947-1.483.445a266.948 266.948 0 01-2.865-3.035h-1.766c-.963-.043-3.192-.711-4.4-3.034z"/></g></svg>