<svg width="49" height="31" fill="none" xmlns="http://www.w3.org/2000/svg"><path opacity=".2" d="M49 7.517c0 7.18-15.5 6.5-24 19.5-5.5 8.412-25-5.82-25-13s11.193-13 25-13 24-.68 24 6.5z" fill="#FF8A00"/><g opacity=".8" fill="#FF8A00"><path d="M22.139 3.407L15.205.022c-.122-.036-.363-.055-.348.165.014.22.335 2.165.494 3.11-2.879.561-9.09 3.4-10.904 10.264-2.269 8.58 4.427 16.905 12.788 17.4v-3.568c-4.061-.53-11.54-4.04-8.965-13.832 1.647-4.848 6.111-6.641 7.612-6.806-.03.03.341 2.025.53 3.019.037.152.168.403.403.183.234-.22 3.951-3.934 5.781-5.763.097-.14.142-.494-.457-.787zm5.104 8.178l3.312-1.262-1.007-1.482-2.488 2.47.183.274zm1.097 3.001c.05.164.147.567.147.86 0 .029 2.342.012 3.513 0-.03-.464-.154-1.556-.402-2.214-.03-.015-2.184.896-3.257 1.354zm.147 3.842c-.03.28-.117.918-.22 1.226.015 0 2.154.902 3.22 1.354.153-.464.47-1.629.513-2.58h-3.513zm.311 7.519c.427-.475 1.358-1.624 1.665-2.415-.015.015-2.153-.884-3.22-1.335-.195.323-.651 1.043-.915 1.335.015 0 1.653 1.61 2.47 2.415zm-5.763.311l1.336 3.166c.701-.348 2.235-1.197 2.762-1.812-.014 0-1.64-1.646-2.451-2.47-.275.269-.988.868-1.647 1.116zm-4.062 1.135v3.567c.995-.085 3.092-.366 3.532-.805a326.68 326.68 0 01-1.318-3.128c-.482.158-1.599.454-2.214.366z"/><path d="M15.132 14.1v8.4h-1.56v-7.092h-1.776V14.1h3.336zm5.17 8.52a3.28 3.28 0 01-1.8-.504c-.528-.344-.944-.84-1.248-1.488-.304-.656-.456-1.432-.456-2.328 0-.896.152-1.668.456-2.316.304-.656.72-1.152 1.248-1.488a3.224 3.224 0 011.8-.516c.672 0 1.272.172 1.8.516.536.336.956.832 1.26 1.488.304.648.456 1.42.456 2.316 0 .896-.152 1.672-.456 2.328-.304.648-.724 1.144-1.26 1.488a3.28 3.28 0 01-1.8.504zm0-1.356c.6 0 1.072-.248 1.416-.744.352-.496.528-1.236.528-2.22 0-.984-.176-1.724-.528-2.22-.344-.496-.816-.744-1.416-.744-.592 0-1.064.248-1.416.744-.344.496-.516 1.236-.516 2.22 0 .984.172 1.724.516 2.22.352.496.824.744 1.416.744z"/></g></svg>