<svg width="49" height="29" fill="none" xmlns="http://www.w3.org/2000/svg"><path opacity=".2" d="M49 6.517c0 7.18-15.5 6.5-24 19.5-5.5 8.412-25-5.82-25-13s11.193-13 25-13 24-.68 24 6.5z" fill="#FF8A00"/><g opacity=".8" fill="#FF8A00"><path d="M31 14c0 7.732-6.268 14-14 14S3 21.732 3 14 9.268 0 17 0s14 6.268 14 14zM6.833 14c0 5.615 4.552 10.167 10.167 10.167S27.167 19.615 27.167 14 22.615 3.833 17 3.833 6.833 8.385 6.833 14z"/><rect x="15.293" y="6.146" width="2.732" height="10.927" rx="1.366"/><rect x="21.925" y="17.551" width="2.732" height="6.655" rx="1.366" transform="rotate(121.702 21.925 17.551)"/></g></svg>