<svg width="60" height="60" fill="none" xmlns="http://www.w3.org/2000/svg"><rect x="2" y="38" width="8" height="16" rx="2" fill="#fff"/><rect x="18" y="26" width="8" height="28" rx="2" fill="#fff"/><rect x="34" y="34" width="8" height="20" rx="2" fill="#fff"/><rect x="50" y="22" width="8" height="32" rx="2" fill="#fff"/><path fill-rule="evenodd" clip-rule="evenodd" d="M59 10a6 6 0 01-9.07 5.156l-6.166 5.174A6 6 0 1132 21.89l-5.126-2.39A5.992 5.992 0 0122 22a5.974 5.974 0 01-3.584-1.187l-5.602 4.7a6 6 0 11-2.246-3.337l5.613-4.709a6 6 0 1111.807-1.862l5.423 2.529A5.987 5.987 0 0138 16c1.273 0 2.453.396 3.424 1.072l5.947-4.99A6 6 0 1159 10zm-8.329 0a2.329 2.329 0 104.658 0 2.329 2.329 0 00-4.658 0zm-31 6a2.329 2.329 0 104.658 0 2.329 2.329 0 00-4.658 0zm-15 11a2.329 2.329 0 104.658 0 2.329 2.329 0 00-4.658 0zM38 24.329a2.329 2.329 0 110-4.658 2.329 2.329 0 010 4.658z" fill="#fff"/></svg>