<svg width="60" height="60" fill="none" xmlns="http://www.w3.org/2000/svg"><path d="M0 10C0 4.477 4.477 0 10 0h40c5.523 0 10 4.477 10 10v26.5c-.167.833-.9 2.5-2.5 2.5-2 0-2.5-1.667-2.5-2.5V13a8 8 0 00-8-8H13a8 8 0 00-8 8v34a8 8 0 008 8h29.5c.833.167 2.5.9 2.5 2.5s-1.667 2.333-2.5 2.5H10C4.477 60 0 55.523 0 50V10z" fill="#fff"/><rect x="13" y="15" width="34" height="4" rx="2" fill="#fff"/><rect x="13" y="27" width="17" height="4" rx="2" fill="#fff"/><rect x="13" y="40" width="13" height="4" rx="2" fill="#fff"/><path fill-rule="evenodd" clip-rule="evenodd" d="M51.117 45.582A12.319 12.319 0 0053 39c0-6.627-5.149-12-11.5-12S30 32.373 30 39s5.149 12 11.5 12c2.25 0 4.35-.675 6.124-1.84l7.701 7.7a2.5 2.5 0 003.536-3.535l-7.744-7.743zm-9.617.957c-3.99 0-7.225-3.375-7.225-7.539s3.235-7.54 7.225-7.54c3.99 0 7.225 3.376 7.225 7.54s-3.235 7.54-7.225 7.54z" fill="#fff"/></svg>