<svg width="60" height="60" fill="none" xmlns="http://www.w3.org/2000/svg"><g clip-path="url(#clip0_54_738)" fill="#fff"><path d="M10 60C4.477 60 0 55.523 0 50V10C0 4.477 4.477 0 10 0h26.5c.833.167 2.5.9 2.5 2.5 0 2-1.667 2.5-2.5 2.5H13a8 8 0 00-8 8v34a8 8 0 008 8h34a8 8 0 008-8V17.5c.167-.833.9-2.5 2.5-2.5s2.333 1.667 2.5 2.5V50c0 5.523-4.477 10-10 10H10z"/><rect width="34" height="4" rx="2" transform="matrix(1 0 0 -1 13 44)"/><rect width="17" height="4" rx="2" transform="matrix(1 0 0 -1 13 32)"/><rect width="13" height="4" rx="2" transform="matrix(1 0 0 -1 13 19)"/><path fill-rule="evenodd" clip-rule="evenodd" d="M52.894 1.523C54.484.473 55.825 0 56.857 0 57.771 0 58 .75 58 1.125c0 .5-.22 1.574-.857 3.254l-4.25-2.856zm-1.697 1.27C47.337 5.998 42.38 12.191 37 22.5c0 2.25 4.286 5.063 6 4.5 7.554-9.669 11.456-16.485 13.36-20.737l-5.163-3.47z"/><path d="M35.506 24c.197.796.944 2.625 2.361 3.58 1.417.955 3.346 1.193 4.133 1.193-2.165 1.591-6.73 4.654-7.675 4.177-.945-.477.393-6.166 1.18-8.95z"/></g><defs><clipPath id="clip0_54_738"><path fill="#fff" d="M0 0h60v60H0z"/></clipPath></defs></svg>