<svg width="60" height="60" fill="none" xmlns="http://www.w3.org/2000/svg"><path fill-rule="evenodd" clip-rule="evenodd" d="M30 58c15.464 0 28-12.536 28-28 0-2.898-.44-5.694-1.258-8.323a5.99 5.99 0 01-5.208 2.305 22.37 22.37 0 01.82 6.018c0 12.345-10.009 22.353-22.354 22.353-1.765 0-3.481-.204-5.128-.59.084.399.128.813.128 1.237a5.98 5.98 0 01-1.707 4.192C25.442 57.72 27.688 58 30 58zm21.468-45.977a6.002 6.002 0 00-4.753 3.135C42.62 10.55 36.649 7.647 30 7.647a22.26 22.26 0 00-10 2.356V10a5.994 5.994 0 00-2.657-4.983A27.882 27.882 0 0130 2c8.62 0 16.332 3.896 21.468 10.023zM2 30a27.886 27.886 0 016.406-17.825 6.012 6.012 0 004.283 3.681A22.261 22.261 0 007.647 30c0 7.175 3.38 13.56 8.634 17.65a6.004 6.004 0 00-3.239 4.633C6.332 47.168 2 39.09 2 30z" fill="#fff"/><circle cx="14" cy="10" r="4" fill="#fff"/><circle cx="34" cy="18" r="4" fill="#fff"/><circle cx="30" cy="30" r="6" fill="#fff"/><circle cx="52" cy="18" r="4" fill="#fff"/><circle cx="19" cy="53" r="4" fill="#fff"/><path fill-rule="evenodd" clip-rule="evenodd" d="M37.744 22.682a5.989 5.989 0 002.235-5.197A15.97 15.97 0 0146 29.993c0 8.837-7.163 16-16 16s-16-7.163-16-16c0-8.676 6.906-15.74 15.521-15.993A5.978 5.978 0 0028 17.993c0 .52.066 1.023.19 1.503-5.02.86-8.84 5.232-8.84 10.497 0 5.882 4.768 10.65 10.65 10.65 5.882 0 10.65-4.768 10.65-10.65 0-2.83-1.105-5.404-2.906-7.311z" fill="#fff"/></svg>