<svg width="60" height="60" fill="none" xmlns="http://www.w3.org/2000/svg"><path fill-rule="evenodd" clip-rule="evenodd" d="M.776 44.851c-.007 4.404 4.272 7.98 9.556 7.987l13.154.019c-.031.791-1.21 1.77-2.39 2.36h-3.589a2.392 2.392 0 000 4.783h23.92a2.392 2.392 0 000-4.784h-3.589c-.783-.392-2.337-1.4-2.39-2.342l13.154.019c5.284.007 9.573-3.556 9.58-7.96V18.5c-.16-.665-.86-1.994-2.39-1.997-1.53-.002-2.234 1.326-2.395 1.99l.037 22.372c-4.51 0-5.707.001-6.305.002l-2.713-.002-16.265-.023-16.264-.024c-2.362-.003-2.384-.003-2.872.007-.386.007-1.063.02-3.414.04V15.358c.005-3.523 3.436-6.373 7.664-6.367l28.23-.004c.797 0 2.392-.396 2.394-1.99C43.891 5.72 42.297 5.134 41.5 5H10.4C5.116 4.992.827 8.556.821 12.96L.776 44.85zm28.691 3.19a2.392 2.392 0 100-4.784 2.392 2.392 0 000 4.784z" fill="#fff"/><path d="M34 25.875c1.371-2.25 4-3.188 5.143-3.375 0-1.8 1.524-4.5 2.286-5.625.571 2.25 4.571 3.938 5.142 3.938-1.371 2.25-3.619 3.562-4.571 3.937C42 33.188 34.571 36 32.857 36 31.143 36 30 35.437 30 34.875c0-.563 2.286-2.813 2.857-3.938.572-1.125-.571-2.25 1.143-5.062zM56.857 0C53.2 0 46.191 9.75 43.143 14.625c0 2.25 3.428 4.5 5.143 3.938C56.057 8.662 58 2.813 58 1.125 58 .75 57.771 0 56.857 0z" fill="#fff"/></svg>