<svg width="60" height="60" fill="none" xmlns="http://www.w3.org/2000/svg"><path d="M28.91 3.99a25.91 25.91 0 00-12.215 48.76l2.476-4.63a20.659 20.659 0 01-2.97-34.507c3.63-2.833 8.104-4.64 12.71-4.64V3.99z" fill="#fff"/><path d="M28.91 3.99v7.474c0 .166.1.498.499.498.398 0 4.816-3.322 6.976-4.983.498-.498.498-.498 0-.996 0 0-5.98-4.983-6.976-4.983-.314 0-.499 0-.499.498V3.99zm.982 52.018A25.91 25.91 0 0043.99 7.758l-2.654 4.531a20.66 20.66 0 011.63 34.595c-3.738 2.69-8.278 4.323-12.88 4.145l-.194 4.979z" fill="#fff"/><path d="M29.892 56.008l.194-4.98.096-2.489c.007-.166-.08-.502-.478-.517-.399-.016-4.942 3.132-7.164 4.708-.517.479-.517.479-.039.996 0 0 5.782 5.211 6.777 5.25.314.012.498.019.518-.479l.096-2.49zm3.688-32.584c.503-.706 1.618-.405 2.164 0 .72.536 1.611 1.563 1.11 2.27l-7.881 11.089a.508.508 0 01-.72.116l-3.858-6.068c-.29-.45-.721-1.77 0-2.524.72-.754 1.511-.077 1.974.397l2.163 3.017 5.048-8.297z" fill="#fff"/><path fill-rule="evenodd" clip-rule="evenodd" d="M27 46h6.002c.376 0 .74-.125 1.033-.354.293-.229.496-.547.576-.904l.681-3.006c.895-.38 1.744-.855 2.53-1.418l3.03.936c.358.111.745.1 1.096-.032.351-.132.645-.376.833-.692l3.002-5.045a1.577 1.577 0 00-.319-1.983l-2.35-2.08a12.56 12.56 0 000-2.835l2.35-2.08c.57-.507.701-1.331.319-1.982L42.78 19.48a1.636 1.636 0 00-.832-.692 1.697 1.697 0 00-1.096-.033l-3.03.936a13.665 13.665 0 00-2.531-1.42l-.68-3.012a1.594 1.594 0 00-.577-.905A1.681 1.681 0 0033.002 14h-6.003c-.376 0-.74.126-1.033.354a1.594 1.594 0 00-.576.905l-.673 3.011c-.439.184-.868.39-1.285.618-.432.243-.85.512-1.253.8l-3.03-.936a1.7 1.7 0 00-1.096.032 1.636 1.636 0 00-.833.693l-3.001 5.045a1.57 1.57 0 00-.2 1.046c.059.36.24.69.518.938l2.35 2.075a12.573 12.573 0 000 2.835l-2.35 2.08a1.596 1.596 0 00-.517.937c-.057.36.012.729.199 1.045l3.008 5.042c.188.316.482.56.832.692.351.132.738.144 1.097.033l3.03-.936a13.297 13.297 0 002.53 1.419l.672 3.014c.08.357.284.676.577.905A1.68 1.68 0 0027 46zm3-6c5.523 0 10-4.477 10-10s-4.477-10-10-10-10 4.477-10 10 4.477 10 10 10z" fill="#fff"/></svg>