<svg width="60" height="60" fill="none" xmlns="http://www.w3.org/2000/svg"><path d="M11.056 59.038A9.596 9.596 0 011.46 49.44V11.056c0-5.3 4.297-9.596 9.596-9.596H40c.8.16 2.399.864 2.399 2.4 0 1.918-1.6 2.398-2.399 2.398H13.935a7.677 7.677 0 00-7.677 7.677v32.627a7.677 7.677 0 007.677 7.678h32.627a7.677 7.677 0 007.678-7.678V21.5c.16-.8.863-2.4 2.398-2.4 1.536 0 2.24 1.6 2.4 2.4v27.941c0 5.3-4.297 9.597-9.597 9.597H11.056z" fill="#fff"/><path d="M50.5 4c1.668-2.301 4.188-2.819 6-1.5 1.929 1.404 2.187 4.377.518 6.678L30.836 45.292a1.71 1.71 0 01-2.393.38L15.627 25.909c-.959-1.463-.806-3.117.373-4.409.912-1 2.961-1.042 4.5.5L30 34 50.5 4z" fill="#fff"/></svg>