<svg width="42" height="41" fill="none" xmlns="http://www.w3.org/2000/svg"><path d="M21.491 13.664c-3.764 0-6.836 3.072-6.836 6.836 0 3.764 3.072 6.836 6.836 6.836 3.764 0 6.836-3.072 6.836-6.836 0-3.764-3.072-6.836-6.836-6.836zM41.995 20.5c0-2.83.025-5.636-.134-8.462-.159-3.282-.907-6.195-3.308-8.595C36.148 1.037 33.24.293 29.958.135c-2.83-.16-5.636-.133-8.462-.133-2.83 0-5.636-.026-8.462.133-3.282.159-6.195.908-8.595 3.308-2.405 2.405-3.15 5.313-3.308 8.595-.159 2.83-.133 5.636-.133 8.462 0 2.826-.026 5.636.133 8.462.159 3.282.908 6.195 3.308 8.595 2.405 2.405 5.313 3.15 8.595 3.308 2.831.16 5.636.133 8.462.133 2.831 0 5.636.026 8.462-.133 3.282-.159 6.195-.908 8.595-3.308 2.406-2.405 3.15-5.313 3.308-8.595.164-2.826.134-5.631.134-8.462zM21.49 31.018A10.504 10.504 0 0110.973 20.5c0-5.82 4.697-10.518 10.518-10.518 5.82 0 10.518 4.697 10.518 10.518 0 5.82-4.697 10.518-10.518 10.518zm10.95-19.01a2.454 2.454 0 01-2.457-2.457 2.454 2.454 0 012.456-2.457 2.454 2.454 0 012.27 3.397 2.454 2.454 0 01-2.27 1.516z" fill="#fff"/></svg>