<svg width="16" height="15" fill="none" xmlns="http://www.w3.org/2000/svg"><path d="M8.18 4.999A2.506 2.506 0 005.679 7.5a2.506 2.506 0 002.5 2.501A2.506 2.506 0 0010.682 7.5 2.506 2.506 0 008.18 4.999zm7.5 2.501c0-1.036.01-2.062-.049-3.096-.058-1.2-.332-2.266-1.21-3.144-.88-.88-1.944-1.152-3.145-1.21C10.242-.01 9.215 0 8.182 0 7.146 0 6.119-.008 5.086.05 3.885.107 2.819.38 1.94 1.26 1.06 2.14.788 3.203.73 4.404.673 5.44.682 6.466.682 7.5c0 1.034-.01 2.062.049 3.096.058 1.2.332 2.266 1.21 3.145.88.88 1.944 1.152 3.145 1.21 1.035.058 2.062.048 3.096.048 1.035 0 2.061.01 3.095-.048 1.201-.059 2.267-.332 3.145-1.21.88-.88 1.152-1.944 1.21-3.145.06-1.034.049-2.06.049-3.096zm-7.5 3.848A3.843 3.843 0 014.33 7.5a3.843 3.843 0 013.85-3.848A3.843 3.843 0 0112.028 7.5a3.843 3.843 0 01-3.848 3.848zm4.005-6.955a.898.898 0 110-1.798.898.898 0 110 1.798z" fill="#fff"/></svg>