<svg width="25" height="25" fill="none" xmlns="http://www.w3.org/2000/svg"><path d="M9.925 7.5l.262-.25c.65-.675.538-.988-.1-1.625l-3.4-3.438c-1.012-1.025-1.2-1.512-2.162-.6l-.263.25L9.925 7.5zm-.663.562l-5.5-5.5C2.889 3.737.838 6.9 1.85 9.237c.913 2.088 1.362 2.188 2.5 3.75 2.313 2.638 5.225 5.463 7.5 7.588 1.575 1.137 1.638 1.662 3.75 2.5 2.25.887 5.5-1.113 6.725-1.95l-5.5-5.5-1.475 2.025c-.425.575-1.5-.075-2.25-.825-1.3-1.313-3.975-3.975-5-5.088-.737-.737-1.4-1.812-.825-2.25l1.987-1.425zm13.776 12.563l.262-.263c.85-.925.363-1.125-.65-2.125l-3.425-3.4c-.638-.612-.938-.75-1.588-.137l-.25.262 5.65 5.663z" fill="#fff"/></svg>