<svg width="28" height="29" fill="none" xmlns="http://www.w3.org/2000/svg"><g clip-path="url(#clip0_54_1287)"><path d="M14.113 2.914c3.693 0 4.13.014 5.59.08 1.348.062 2.08.288 2.568.477.645.251 1.106.55 1.59 1.035a4.29 4.29 0 011.035 1.59c.19.488.415 1.22.476 2.569.067 1.458.08 1.896.08 5.59 0 3.693-.013 4.13-.08 5.589-.061 1.348-.287 2.08-.476 2.568a4.286 4.286 0 01-1.035 1.59 4.284 4.284 0 01-1.59 1.035c-.488.19-1.22.415-2.569.477-1.458.066-1.896.08-5.59.08-3.693 0-4.13-.014-5.589-.08-1.348-.062-2.08-.287-2.568-.477a4.285 4.285 0 01-1.59-1.034 4.285 4.285 0 01-1.035-1.591c-.19-.487-.415-1.22-.477-2.568-.066-1.459-.08-1.896-.08-5.59 0-3.693.014-4.13.08-5.59.062-1.348.287-2.08.477-2.568.25-.645.55-1.106 1.034-1.59a4.286 4.286 0 011.59-1.035c.488-.19 1.22-.415 2.57-.476 1.458-.067 1.895-.08 5.589-.08zm0-2.492c-3.757 0-4.228.016-5.703.083-1.473.067-2.478.301-3.358.643a6.78 6.78 0 00-2.45 1.596 6.78 6.78 0 00-1.595 2.45C.665 6.073.43 7.078.364 8.55.296 10.026.28 10.498.28 14.254c0 3.757.015 4.228.083 5.703.067 1.473.3 2.478.643 3.358.353.91.826 1.68 1.595 2.45a6.78 6.78 0 002.45 1.595c.88.342 1.885.576 3.358.643 1.475.067 1.946.083 5.703.083 3.756 0 4.227-.015 5.703-.083 1.472-.067 2.478-.3 3.357-.643a6.78 6.78 0 002.45-1.595 6.781 6.781 0 001.596-2.45c.342-.88.576-1.886.643-3.358.067-1.475.083-1.946.083-5.703 0-3.756-.016-4.228-.083-5.703-.067-1.472-.301-2.478-.643-3.357a6.78 6.78 0 00-1.596-2.45 6.779 6.779 0 00-2.45-1.596c-.88-.342-1.885-.576-3.357-.643C18.34.438 17.869.422 14.113.422zm0 6.73a7.103 7.103 0 100 14.205 7.103 7.103 0 000-14.206zm0 11.713a4.61 4.61 0 110-9.222 4.61 4.61 0 010 9.222zM23.156 6.87a1.66 1.66 0 11-3.32 0 1.66 1.66 0 013.32 0z" fill="#fff"/></g><defs><clipPath id="clip0_54_1287"><path fill="#fff" transform="translate(.28 .422)" d="M0 0h27.665v27.665H0z"/></clipPath></defs></svg>