<svg width="30" height="30" fill="none" xmlns="http://www.w3.org/2000/svg"><path d="M26.942 5a1.666 1.666 0 00-.342 0H3.267c-.15.002-.298.025-.442.067l12.042 11.991L26.942 5z" fill="#fff"/><path d="M28.175 6.158L16.042 18.241a1.666 1.666 0 01-2.35 0L1.667 6.25a1.667 1.667 0 00-.059.417v16.666A1.667 1.667 0 003.275 25h23.333a1.666 1.666 0 001.667-1.667V6.667a1.667 1.667 0 00-.1-.509zM4.417 23.333H3.258v-1.191l6.059-6.009 1.175 1.175-6.075 6.025zm22.175 0h-1.167l-6.075-6.025 1.175-1.175 6.058 6.009.009 1.191z" fill="#fff"/></svg>