<svg width="25" height="28" fill="none" xmlns="http://www.w3.org/2000/svg"><path d="M12.5 2.25c4.808 0 8.705 4.365 8.705 9.75 0 4.12-2.584 8.61-7.687 13.518a1.467 1.467 0 01-1.02.422c-.374 0-.735-.15-1.019-.424l-.337-.328C6.265 20.408 3.795 16.028 3.795 12c0-5.385 3.897-9.75 8.705-9.75zm0 6c-.888 0-1.74.395-2.368 1.098-.627.704-.98 1.657-.98 2.652 0 .995.353 1.948.98 2.652.628.703 1.48 1.098 2.368 1.098.888 0 1.74-.395 2.367-1.098.628-.704.981-1.657.981-2.652 0-.995-.353-1.948-.98-2.652-.628-.703-1.48-1.098-2.368-1.098z" fill="#fff"/></svg>