<svg width="30" height="30" fill="none" xmlns="http://www.w3.org/2000/svg"><g clip-path="url(#clip0_54_1273)"><path d="M25.477 3.336c-.714-.657-3.601-2.752-10.04-2.78 0 0-7.59-.456-11.286 2.938-2.056 2.056-2.78 5.073-2.86 8.809-.078 3.735-.173 10.735 6.574 12.634h.005l-.005 2.899s-.045 1.174.73 1.41c.933.292 1.483-.601 2.376-1.562a88.134 88.134 0 001.675-1.893c4.617.388 8.162-.5 8.567-.63.932-.303 6.208-.977 7.061-7.977.888-7.224-.427-11.786-2.797-13.848zm.78 13.32c-.724 5.843-5 6.214-5.786 6.467-.337.106-3.455.882-7.37.629 0 0-2.922 3.522-3.832 4.438-.298.298-.623.27-.618-.32 0-.388.023-4.815.023-4.815-.006 0-.006 0 0 0-5.72-1.584-5.382-7.545-5.32-10.663.061-3.118.651-5.674 2.393-7.393 3.129-2.837 9.573-2.415 9.573-2.415 5.443.022 8.05 1.662 8.657 2.213 2.005 1.72 3.028 5.831 2.28 11.86zm-7.808-4.539c.022.483-.702.517-.725.034-.062-1.236-.64-1.837-1.831-1.905-.484-.028-.439-.752.039-.724 1.567.084 2.438.983 2.517 2.595zm1.14.635c.056-2.382-1.432-4.247-4.258-4.455-.478-.034-.427-.758.05-.725 3.259.236 4.995 2.478 4.933 5.197-.006.483-.736.46-.725-.017zm2.64.753c.006.483-.724.488-.724.005-.034-4.578-3.084-7.073-6.786-7.1-.478-.006-.478-.725 0-.725 4.14.028 7.471 2.887 7.51 7.82zm-.634 5.51v.012c-.607 1.068-1.742 2.247-2.91 1.87l-.011-.016c-1.186-.331-3.978-1.77-5.742-3.174a14.685 14.685 0 01-2.382-2.382 18.232 18.232 0 01-1.73-2.618c-1.197-2.163-1.46-3.13-1.46-3.13-.377-1.168.797-2.302 1.87-2.91h.011c.517-.269 1.011-.179 1.343.22 0 0 .696.831.994 1.241.281.382.657.995.854 1.337.343.613.13 1.236-.208 1.495l-.674.54c-.343.274-.298.786-.298.786s1 3.78 4.736 4.736c0 0 .511.045.787-.298l.539-.674c.258-.337.882-.55 1.494-.208.826.466 1.877 1.19 2.573 1.848.394.32.483.81.214 1.326z" fill="url(#paint0_linear_54_1273)"/></g><defs><linearGradient id="paint0_linear_54_1273" x1="1.274" y1="14.919" x2="28.553" y2="14.919" gradientUnits="userSpaceOnUse"><stop stop-color="#1D2D64"/><stop offset=".541" stop-color="#3268B8"/><stop offset="1" stop-color="#449BFF"/></linearGradient><clipPath id="clip0_54_1273"><path fill="#fff" transform="translate(.533 .533)" d="M0 0h28.764v28.764H0z"/></clipPath></defs></svg>