<svg width="38" height="38" fill="none" xmlns="http://www.w3.org/2000/svg"><path d="M33.741 11.3c.217-.719 0-1.246-1.023-1.246h-3.392c-.862 0-1.257.456-1.473.957 0 0-1.724 4.204-4.167 6.93-.789.794-1.15 1.044-1.58 1.044-.214 0-.527-.25-.527-.97V11.3c0-.863-.248-1.246-.967-1.246h-5.329c-.538 0-.863.399-.863.779 0 .816 1.222 1.005 1.347 3.306v4.991c0 1.094-.196 1.293-.63 1.293-1.148 0-3.944-4.22-5.603-9.05-.323-.939-.65-1.318-1.515-1.318h-3.39c-.97 0-1.163.456-1.163.957 0 .9 1.15 5.354 5.352 11.244 2.802 4.021 6.747 6.202 10.34 6.202 2.154 0 2.42-.484 2.42-1.32v-3.04c0-.967.206-1.162.888-1.162.5 0 1.363.253 3.375 2.19 2.298 2.299 2.678 3.33 3.97 3.33H33.2c.968 0 1.452-.484 1.174-1.44-.305-.95-1.403-2.334-2.86-3.972-.791-.934-1.974-1.939-2.334-2.442-.503-.647-.358-.933 0-1.509.001.002 4.131-5.815 4.561-7.793z" fill="#fff"/></svg>