<svg width="30" height="30" fill="none" xmlns="http://www.w3.org/2000/svg"><g clip-path="url(#clip0_54_1277)"><path fill-rule="evenodd" clip-rule="evenodd" d="M21.235 17.77c-.357-.179-2.108-1.04-2.434-1.16-.326-.118-.563-.177-.802.18-.237.355-.919 1.158-1.126 1.396-.209.238-.416.267-.772.09-.356-.18-1.504-.555-2.864-1.768-1.059-.944-1.774-2.11-1.982-2.468-.207-.356-.022-.549.156-.726.16-.16.356-.416.535-.623.178-.209.237-.357.356-.596.12-.237.06-.445-.03-.623-.089-.179-.8-1.932-1.098-2.645-.289-.694-.582-.6-.8-.611a14.86 14.86 0 00-.684-.012c-.237 0-.623.088-.949.445-.327.356-1.246 1.218-1.246 2.971 0 1.753 1.275 3.446 1.453 3.685.179.237 2.511 3.835 6.084 5.377.85.367 1.514.586 2.03.75.854.271 1.63.233 2.244.14.683-.101 2.107-.861 2.404-1.693.296-.832.296-1.545.207-1.693-.089-.149-.326-.238-.683-.416h.001zm-6.498 8.872h-.005c-2.122 0-4.205-.57-6.03-1.651l-.432-.257-4.485 1.177 1.198-4.372-.282-.448a11.819 11.819 0 01-1.81-6.304C2.891 8.255 8.206 2.94 14.74 2.94a11.76 11.76 0 018.376 3.473 11.777 11.777 0 013.466 8.381c-.002 6.532-5.317 11.847-11.846 11.847zM24.82 4.714A14.16 14.16 0 0014.736.534C6.88.533.486 6.926.483 14.785a14.218 14.218 0 001.902 7.125L.364 29.297l7.555-1.982a14.24 14.24 0 006.812 1.735h.006c7.855 0 14.25-6.394 14.252-14.254a14.167 14.167 0 00-4.17-10.082z" fill="url(#paint0_linear_54_1277)"/></g><defs><linearGradient id="paint0_linear_54_1277" x1=".364" y1="14.915" x2="28.989" y2="14.915" gradientUnits="userSpaceOnUse"><stop stop-color="#1D2D64"/><stop offset=".541" stop-color="#3268B8"/><stop offset="1" stop-color="#449BFF"/></linearGradient><clipPath id="clip0_54_1277"><path fill="#fff" transform="translate(.364 .533)" d="M0 0h28.764v28.764H0z"/></clipPath></defs></svg>