<svg width="136" height="86" fill="none" xmlns="http://www.w3.org/2000/svg"><path opacity=".5" d="M4.002 40.095C61.515 43.58 26.803 86 62.096 86 97.39 86 126 66.748 126 43S97.39 0 62.096 0C8.65 0-8.779 40.095 4.002 40.095z" fill="#4299FF"/><path d="M95.677 70.805v7.982c7.814.106 25.291-4.3 32.689-22.776 4.301-8.94 2.795-27.46-3.656-33.313-.086 0-3.764 3.406-5.592 5.109 2.724 3.867 6.839 14.432 1.506 25.756-6.667 14.155-19.463 17.242-24.947 17.242z" fill="#1D2D64"/><path d="M92.452 56.65c3.082.532 10.279-.213 14.408-7.45 2.323-4.088 1.9-8.728 1.398-10.537l5.699-5.748c1.792 4.222 3.914 14.496-1.936 21.819-4.193 5.321-8.924 9.046-16.989 9.26.108 0-.537-3.832-2.58-7.345zm4.516-21.287c-2.258-.922-7.42-1.405-10 4.045-2.473 4.576 1.72 8.94 4.408 9.791 2.688.852 8.172.639 10.108-5.108.602-1.703-.036-3.832-.43-4.683l21.72-21.5 3.764.426L136 8.755l-7.312-.851-.86-7.237-9.57 9.472.43 3.725-21.72 21.5z" fill="#1D2D64"/><path d="M103.419 22.698c-4.265-2.164-14.903-4.598-23.333 2.98.573 1.49 1.247 5.577-.645 10.004-1.893 4.428-3.298 6.032-3.764 6.28l-1.613 3.831 6.99 3.406c-.753-1.596-2.13-5.449-1.613-8.088.645-3.3 2.258-10.43 10.752-12.666 4.56-1.107 7.061-.461 7.743 0l5.483-5.747zM77.29 9.607c.932 1.277 2.796 4.513 2.796 7.237 2.903-1.17 9.871-3.47 14.516-3.3 4.645.171 11.255 2.626 13.979 3.832l5.699-5.534c-2.76-2.093-10.56-6.28-19.678-6.28S79.262 8.26 77.29 9.607zm-18.387 40.55c-3.763.284-11.914-1.852-14.408-12.665-.932-.32-2.904-2.576-3.334-9.047-.172-1.107 1.219-1.525 1.936-1.596-1.219-3.264-2.13-11.07 3.978-16.178 7.635-6.386 14.731-7.024 21.936.32-.108.106 3.978 1.702 4.516 4.895.537 3.193.323 6.599-.538 10.963.574 0 1.742.404 1.828 2.022.108 2.022-1.72 8.089-3.333 8.62-.896 3.903-4.667 11.9-12.58 12.666z" fill="#1D2D64"/><path d="M53.527 70.805L46.86 49.73c-3.154 1.561-10.236 4.981-13.333 6.173-3.871 1.49-6.667 4.577-6.99 9.26C26.28 68.91 26.073 75.949 26 79h64.194c0-3.619-.13-11.452-.646-13.836-.645-2.98-1.398-7.237-6.774-9.26-4.3-1.617-10.61-4.789-13.226-6.173L62.56 70.805l-2.796-7.344c.86-1.029 2.56-3.64 2.474-5.854-.087-2.213-2.76-2.98-4.087-3.086-1.505-.036-4.494.49-4.408 2.873.086 2.385 1.613 5.038 2.366 6.067l-2.581 7.344z" fill="#1D2D64"/></svg>