<svg width="106" height="109" fill="none" xmlns="http://www.w3.org/2000/svg"><g filter="url(#filter0_d_726_2)"><rect x="2.773" y="15.267" width="88" height="88" rx="19" transform="rotate(-8.82 2.773 15.267)" fill="url(#paint0_linear_726_2)" fill-opacity=".9" stroke="url(#paint1_linear_726_2)" stroke-width="2"/><g clip-path="url(#clip0_726_2)"><path d="M30.406 34.753a2.197 2.197 0 00.472 3.07l1.305.957a2.197 2.197 0 002.598-3.543l-1.305-.956a2.197 2.197 0 00-3.07.472zm19.152-11.544a2.233 2.233 0 00-1.867 2.547l.386 2.513a2.233 2.233 0 004.414-.68l-.386-2.512a2.233 2.233 0 00-2.547-1.868zM30.211 57.97a2.233 2.233 0 10-.679-4.413l-2.638.406a2.233 2.233 0 00.679 4.414l2.638-.406zm33.79 8.495c-.19-1.236.31-2.435 1.158-3.278a16.134 16.134 0 003.566-5.365c1.056-2.568 1.368-5.268.93-8.113-.663-4.308-2.745-7.74-6.262-10.319-3.517-2.58-7.415-3.534-11.724-2.871-4.308.662-7.739 2.744-10.318 6.262-2.58 3.517-3.535 7.415-2.872 11.723.438 2.848 1.528 5.335 3.267 7.473a15.177 15.177 0 005.03 4.038c1.084.544 1.943 1.546 2.136 2.8l.964 6.272a4.5 4.5 0 005.132 3.764l6.198-.954a4.5 4.5 0 003.764-5.132l-.969-6.3zm11.91-17.783a2.233 2.233 0 002.546 1.868l2.639-.406a2.233 2.233 0 10-.68-4.414l-2.638.406a2.233 2.233 0 00-1.867 2.546zm-8.634-18.455a2.169 2.169 0 003.481 2.588l.974-1.292a2.18 2.18 0 10-3.498-2.6l-.957 1.304z" fill="#9DA2C8" stroke="#6668AA"/></g></g><defs><linearGradient id="paint0_linear_726_2" x1="46.499" y1="-14.436" x2="46.499" y2="129.055" gradientUnits="userSpaceOnUse"><stop stop-color="#4C5E9D"/><stop offset="1" stop-color="#171836"/></linearGradient><linearGradient id="paint1_linear_726_2" x1="46.632" y1="14.432" x2="46.632" y2="104.432" gradientUnits="userSpaceOnUse"><stop stop-color="#3F458D" stop-opacity=".63"/><stop offset="1" stop-color="#3F458D" stop-opacity=".14"/></linearGradient><clipPath id="clip0_726_2"><path fill="#fff" transform="scale(1 -1) rotate(8.744 559.786 145.705)" d="M0 0h60v56.949H0z"/></clipPath><filter id="filter0_d_726_2" x=".459" y="3.459" width="105.081" height="105.081" filterUnits="userSpaceOnUse" color-interpolation-filters="sRGB"><feFlood flood-opacity="0" result="BackgroundImageFix"/><feColorMatrix in="SourceAlpha" values="0 0 0 0 0 0 0 0 0 0 0 0 0 0 0 0 0 0 127 0" result="hardAlpha"/><feOffset dy="4"/><feGaussianBlur stdDeviation="2"/><feComposite in2="hardAlpha" operator="out"/><feColorMatrix values="0 0 0 0 0 0 0 0 0 0 0 0 0 0 0 0 0 0 0.25 0"/><feBlend in2="BackgroundImageFix" result="effect1_dropShadow_726_2"/><feBlend in="SourceGraphic" in2="effect1_dropShadow_726_2" result="shape"/></filter></defs></svg>