<svg width="26" height="25" fill="none" xmlns="http://www.w3.org/2000/svg"><g opacity=".7" filter="url(#filter0_d_56_153)" fill="#434343"><path d="M20.961 3.333a1.11 1.11 0 00-.228 0H5.178a1.11 1.11 0 00-.295.045l8.028 7.994 8.05-8.039z"/><path d="M21.783 4.106l-8.089 8.055a1.111 1.111 0 01-1.566 0L4.11 4.167a1.11 1.11 0 00-.039.277v11.112a1.111 1.111 0 001.111 1.11H20.74a1.111 1.111 0 001.111-1.11V4.444a1.109 1.109 0 00-.067-.338zM5.944 15.556h-.772v-.795l4.04-4.005.782.783-4.05 4.017zm14.784 0h-.778l-4.05-4.017.783-.784 4.04 4.006.005.795z"/></g><defs><filter id="filter0_d_56_153" x="-1" y="0" width="28" height="28" filterUnits="userSpaceOnUse" color-interpolation-filters="sRGB"><feFlood flood-opacity="0" result="BackgroundImageFix"/><feColorMatrix in="SourceAlpha" values="0 0 0 0 0 0 0 0 0 0 0 0 0 0 0 0 0 0 127 0" result="hardAlpha"/><feOffset dy="4"/><feGaussianBlur stdDeviation="2"/><feComposite in2="hardAlpha" operator="out"/><feColorMatrix values="0 0 0 0 0 0 0 0 0 0 0 0 0 0 0 0 0 0 0.25 0"/><feBlend in2="BackgroundImageFix" result="effect1_dropShadow_56_153"/><feBlend in="SourceGraphic" in2="effect1_dropShadow_56_153" result="shape"/></filter></defs></svg>