<svg width="18" height="19" fill="none" xmlns="http://www.w3.org/2000/svg"><path d="M6.94 6l.21-.2c.52-.54.43-.79-.08-1.3L4.35 1.75C3.54.93 3.39.54 2.62 1.27l-.21.2L6.94 6zm-.53.45l-4.4-4.4c-.7.94-2.34 3.47-1.53 5.34.73 1.67 1.09 1.75 2 3 1.85 2.11 4.18 4.37 6 6.07 1.26.91 1.31 1.33 3 2 1.8.71 4.4-.89 5.38-1.56l-4.4-4.4-1.18 1.62c-.34.46-1.2-.06-1.8-.66-1.04-1.05-3.18-3.18-4-4.07-.59-.59-1.12-1.45-.66-1.8l1.59-1.14zM17.43 16.5l.21-.21c.68-.74.29-.9-.52-1.7l-2.74-2.72c-.51-.49-.75-.6-1.27-.11l-.2.21 4.52 4.53z" fill="#434343"/></svg>