<svg width="100" height="96" viewBox="0 0 100 96" fill="none" xmlns="http://www.w3.org/2000/svg">
<g clip-path="url(#clip0_101_244)">
<path d="M55.3272 54.4133L64.5841 19.8662C64.9567 18.4758 66.4844 17.6602 67.808 18.224C84.501 25.3246 93.7014 44.0355 88.2168 62.0355C82.5831 80.5213 62.4209 91.5159 43.819 86.2803C36.5058 84.2225 30.3592 80.0413 25.8441 74.5934C24.9124 73.4699 25.2903 71.7564 26.5549 71.0263L55.3272 54.4133Z" fill="url(#paint0_linear_101_244)" fill-opacity="0.9"/>
<path d="M56.1226 54.6265L56.0343 54.9559L55.739 55.1265L26.9666 71.7394L26.5765 71.0638L26.9666 71.7394C26.1052 72.2368 25.8996 73.3704 26.4779 74.0677L26.4781 74.0679C30.8905 79.3919 36.8956 83.4767 44.042 85.4877C62.2138 90.6022 81.9263 79.8519 87.4291 61.7954C92.7885 44.2064 83.7994 25.921 67.4856 18.9817L67.4853 18.9816C66.6593 18.6298 65.633 19.1331 65.3795 20.0793L56.1226 54.6265Z" stroke="url(#paint1_linear_101_244)" stroke-opacity="0.4" stroke-width="1.6469"/>
<path d="M10.7551 42.7971L45.3022 52.054L16.1297 68.8967C15.0147 69.5405 13.5484 69.224 12.8725 68.1301C8.6605 61.3121 6.70227 53.1179 7.72056 44.7693C7.89451 43.3398 9.36469 42.4245 10.7551 42.7971Z" fill="url(#paint2_linear_101_244)" fill-opacity="0.9"/>
<path d="M8.53797 44.8688L8.53795 44.869C7.54309 53.0255 9.45585 61.0328 13.573 67.6973C13.9978 68.3848 14.9598 68.6213 15.718 68.1836L43.1689 52.3348L10.542 43.5925C9.59612 43.339 8.64666 43.9757 8.53797 44.8688Z" stroke="url(#paint3_linear_101_244)" stroke-opacity="0.4" stroke-width="1.6469"/>
<path d="M15.9309 33.7456C21.7908 16.6748 39.4128 6.50076 57.1265 9.96133C58.4789 10.2254 59.297 11.6446 58.9405 12.9753L50.2114 45.5526L17.6326 36.8231C16.3019 36.4666 15.4834 35.0488 15.9309 33.7456Z" fill="url(#paint4_linear_101_244)" fill-opacity="0.9"/>
<path d="M16.7097 34.013L16.7097 34.0131C16.4285 34.8321 16.9416 35.7855 17.8457 36.0277L49.6291 44.5441L58.1451 12.7622C58.3875 11.8573 57.818 10.9353 56.9687 10.7695L56.9686 10.7695C39.6584 7.38775 22.4362 17.331 16.7097 34.013Z" stroke="url(#paint5_linear_101_244)" stroke-opacity="0.4" stroke-width="1.6469"/>
<path d="M33.3341 34.5682L32.8758 33.747L33.8627 30.3955C33.9536 30.0688 34.023 29.785 34.0707 29.544C34.1184 29.3031 34.1342 29.0866 34.1182 28.8947C34.1021 28.7027 34.0457 28.5199 33.9488 28.3462C33.8382 28.1481 33.6987 28.0036 33.5301 27.9128C33.3604 27.82 33.1753 27.7786 32.9747 27.7888C32.7741 27.7989 32.5737 27.8599 32.3735 27.9716C32.1671 28.0867 32.0103 28.2305 31.9029 28.4029C31.7944 28.5733 31.7406 28.7601 31.7414 28.9632C31.7443 29.1652 31.8056 29.3735 31.9253 29.588L30.8436 30.1916C30.6213 29.7932 30.519 29.3962 30.5366 29.0006C30.5543 28.605 30.6774 28.2376 30.9061 27.8984C31.1367 27.558 31.4594 27.2721 31.8741 27.0407C32.2949 26.8059 32.7085 26.6782 33.115 26.6577C33.5215 26.6371 33.8889 26.7147 34.2173 26.8904C34.5478 27.065 34.8111 27.3279 35.0072 27.6793C35.1382 27.9142 35.2221 28.1701 35.2588 28.447C35.2954 28.724 35.2773 29.0636 35.2045 29.4659C35.1336 29.867 35.0044 30.3772 34.8168 30.9962L34.349 32.6999L34.3729 32.7428L37.1062 31.2175L37.6362 32.1674L33.3341 34.5682ZM40.923 30.4459C40.5144 30.6738 40.106 30.8013 39.6978 30.8282C39.2884 30.853 38.9134 30.7837 38.573 30.62C38.2346 30.4553 37.9623 30.2026 37.7563 29.8622L38.8594 29.2466C39.0235 29.4926 39.2522 29.6409 39.5456 29.6915C39.8379 29.74 40.1261 29.685 40.41 29.5266C40.6327 29.4023 40.8023 29.2407 40.919 29.0417C41.0356 28.8426 41.0933 28.6243 41.0919 28.3866C41.0905 28.1489 41.0239 27.9142 40.8919 27.6825C40.7617 27.4444 40.5942 27.2619 40.3895 27.1351C40.1847 27.0082 39.9644 26.9423 39.7286 26.9373C39.4916 26.9302 39.2577 26.9911 39.0268 27.1199C38.8377 27.2227 38.6722 27.3606 38.5303 27.5336C38.3884 27.7065 38.2968 27.8809 38.2556 28.0566L37.135 28.4609L35.6572 25.0421L39.2975 23.0107L39.8276 23.9606L37.128 25.4671L37.8757 27.2318L37.9125 27.2113C37.9526 27.0095 38.0537 26.8043 38.216 26.5959C38.3772 26.3854 38.5844 26.2095 38.8377 26.0681C39.2177 25.8561 39.6069 25.7568 40.0055 25.7701C40.4029 25.7814 40.7746 25.8954 41.1207 26.1122C41.4667 26.329 41.752 26.6386 41.9765 27.0411C42.2079 27.4557 42.3182 27.8791 42.3075 28.311C42.2976 28.7398 42.175 29.1418 41.9396 29.5169C41.7051 29.8888 41.3663 30.1985 40.923 30.4459ZM46.8525 25.4814L46.6678 25.1505C46.5322 24.9074 46.4584 24.6552 46.4466 24.3939C46.4368 24.1315 46.4962 23.8827 46.6248 23.6475C46.7534 23.4123 46.9586 23.2161 47.2406 23.0588C47.5306 22.8969 47.8085 22.8236 48.0741 22.8387C48.3386 22.8519 48.5779 22.9327 48.792 23.0811C49.0082 23.2284 49.1846 23.4246 49.3214 23.6697L49.5061 24.0006C49.6418 24.2437 49.7155 24.4959 49.7274 24.7572C49.7392 25.0185 49.6808 25.2667 49.5522 25.5019C49.4256 25.7359 49.2194 25.9328 48.9334 26.0923C48.6474 26.2519 48.3705 26.3247 48.1029 26.3107C47.8352 26.2966 47.5933 26.216 47.3771 26.0687C47.163 25.9203 46.9882 25.7245 46.8525 25.4814ZM47.4676 24.7042L47.6523 25.0351C47.7423 25.1965 47.8638 25.323 48.0166 25.4145C48.1695 25.506 48.344 25.497 48.5401 25.3876C48.7382 25.277 48.837 25.1348 48.8365 24.961C48.8368 24.784 48.7914 24.6138 48.7002 24.4503L48.5155 24.1194C48.4243 23.956 48.3054 23.8268 48.1586 23.7319C48.0108 23.6349 47.8347 23.6434 47.6304 23.7574C47.4384 23.8646 47.3407 24.0088 47.3374 24.1901C47.333 24.3694 47.3764 24.5408 47.4676 24.7042ZM41.6586 23.6702L41.474 23.3393C41.3372 23.0941 41.2639 22.8404 41.2541 22.5779C41.2442 22.3155 41.3042 22.0677 41.434 21.8346C41.5626 21.5994 41.7678 21.4032 42.0498 21.2459C42.3378 21.0851 42.6146 21.0123 42.8803 21.0275C43.1468 21.0395 43.3871 21.1197 43.6012 21.2681C43.8153 21.4166 43.9908 21.6133 44.1276 21.8585L44.3122 22.1894C44.449 22.4346 44.5234 22.6878 44.5352 22.949C44.548 23.2071 44.4895 23.4528 44.3597 23.6859C44.23 23.919 44.0231 24.1148 43.7392 24.2733C43.4511 24.434 43.1738 24.5084 42.9073 24.4964C42.6428 24.4833 42.4025 24.4031 42.1863 24.2558C41.9702 24.1085 41.7943 23.9133 41.6586 23.6702ZM42.2799 22.8896L42.4645 23.2205C42.5557 23.3839 42.6767 23.512 42.8275 23.6046C42.9793 23.6941 43.1532 23.6841 43.3493 23.5746C43.5454 23.4652 43.6432 23.3236 43.6426 23.1498C43.643 22.9728 43.5975 22.8026 43.5064 22.6391L43.3217 22.3082C43.2305 22.1448 43.1115 22.0156 42.9648 21.9207C42.8169 21.8237 42.6419 21.8316 42.4396 21.9445C42.2456 22.0528 42.1479 22.197 42.1466 22.3772C42.1454 22.5574 42.1898 22.7282 42.2799 22.8896ZM44.6686 28.2432L45.4811 19.5601L46.2471 19.1326L45.4346 27.8157L44.6686 28.2432Z" fill="white" fill-opacity="0.8"/>
</g>
<defs>
<linearGradient id="paint0_linear_101_244" x1="66.0974" y1="-13.2668" x2="34.2531" y2="105.578" gradientUnits="userSpaceOnUse">
<stop stop-color="#F53B3B"/>
<stop offset="1" stop-color="#FB6544"/>
</linearGradient>
<linearGradient id="paint1_linear_101_244" x1="59.574" y1="10.6115" x2="39.6007" y2="85.153" gradientUnits="userSpaceOnUse">
<stop stop-color="#E74544"/>
<stop offset="1" stop-color="white" stop-opacity="0.14"/>
</linearGradient>
<linearGradient id="paint2_linear_101_244" x1="44.9464" y1="29.0559" x2="33.9099" y2="105.812" gradientUnits="userSpaceOnUse">
<stop stop-color="#1256BC"/>
<stop offset="1" stop-color="#44F0FB"/>
</linearGradient>
<linearGradient id="paint3_linear_101_244" x1="59.2309" y1="10.8461" x2="39.2575" y2="85.3876" gradientUnits="userSpaceOnUse">
<stop stop-color="#E74544"/>
<stop offset="1" stop-color="white" stop-opacity="0.14"/>
</linearGradient>
<linearGradient id="paint4_linear_101_244" x1="66.0974" y1="-13.2668" x2="34.2531" y2="105.578" gradientUnits="userSpaceOnUse">
<stop stop-color="#F5AB3B"/>
<stop offset="1" stop-color="#FB6544"/>
</linearGradient>
<linearGradient id="paint5_linear_101_244" x1="59.574" y1="10.6114" x2="39.6007" y2="85.1529" gradientUnits="userSpaceOnUse">
<stop stop-color="#E74544"/>
<stop offset="1" stop-color="white" stop-opacity="0.14"/>
</linearGradient>
<clipPath id="clip0_101_244">
<rect width="81.9951" height="77.1719" fill="white" transform="matrix(-0.965926 -0.258819 -0.258819 0.965926 99.1747 21.2219)"/>
</clipPath>
</defs>
</svg>
