<svg width="20" height="25" fill="none" xmlns="http://www.w3.org/2000/svg"><path d="M17.616 17.426c.583.281 1.036.648 1.36 1.102.324.453.551.928.68 1.425.13.497.217.961.26 1.393.043.432.043.767 0 1.005-.043.237-.13.41-.26.518-.302.26-.669.486-1.1.68-.433.195-.908.368-1.426.519-.519.15-1.048.27-1.588.356l-1.587.26c-1.21.15-2.484.237-3.823.258a35.689 35.689 0 01-3.856-.259 22.03 22.03 0 01-1.587-.259 27.72 27.72 0 01-1.555-.356 8.01 8.01 0 01-1.426-.519 6.043 6.043 0 01-1.134-.68c-.13-.108-.21-.275-.243-.502C.3 22.14.294 21.8.315 21.347c.022-.454.108-.919.26-1.394.15-.475.377-.95.68-1.425.302-.476.756-.843 1.36-1.102l2.01-.907a12.27 12.27 0 001.684-.907c.497-.324.875-.702 1.134-1.134.259-.432.4-.95.42-1.555v-.194a2.765 2.765 0 01-.81-1.07L6.31 9.91c-.389-.431-.68-.83-.875-1.198-.173-.302-.26-.583-.26-.842 0-.26.184-.389.552-.389-.13-.82-.162-1.555-.098-2.203.044-.54.173-1.037.39-1.49.215-.454.604-.68 1.166-.68a2.94 2.94 0 01.55-1.102c.238-.281.573-.54 1.005-.778C9.17.99 9.743.882 10.456.903c.648 0 1.177.14 1.587.421.41.281.767.605 1.07.972.302.368.55.724.745 1.07.194.345.41.593.647.745a.866.866 0 01.227.162c.065.064.065.15 0 .259a11.09 11.09 0 00-.259 1.328 4.493 4.493 0 00.032 1.62c.39.022.573.151.551.389-.021.237-.13.518-.324.842a7.599 7.599 0 01-.907 1.199c-.151.389-.27.723-.356 1.004a6.62 6.62 0 01-.292.778 2.47 2.47 0 01-.324.55 5.07 5.07 0 01-.486.486v.195c0 .626.14 1.145.421 1.555.281.41.67.788 1.167 1.134a9.293 9.293 0 001.652.907c.605.26 1.274.562 2.009.907z" fill="#1D1E43"/></svg>