<svg width="80" height="80" fill="none" xmlns="http://www.w3.org/2000/svg"><path d="M70 50c2.76 0 5.117.977 7.07 2.93C79.023 54.883 80 57.24 80 60v10c0 2.76-.977 5.117-2.93 7.07C75.117 79.023 72.76 80 70 80H10c-2.76 0-5.117-.977-7.07-2.93C.977 75.117 0 72.76 0 70V60c0-2.76.977-5.117 2.93-7.07C4.883 50.977 7.24 50 10 50h25V40H10c-2.76 0-5.117-.977-7.07-2.93C.977 35.117 0 32.76 0 30V20c0-2.76.977-5.117 2.93-7.07C4.883 10.977 7.24 10 10 10h25V5c0-1.406.482-2.591 1.445-3.555C37.41.482 38.581 0 39.961 0s2.565.482 3.555 1.445C44.506 2.41 45 3.594 45 5v5h25c2.76 0 5.117.977 7.07 2.93C79.023 14.883 80 17.24 80 20v10c0 2.76-.977 5.117-2.93 7.07C75.117 39.023 72.76 40 70 40H45v10h25zM14.96 60c-1.38 0-2.551.495-3.515 1.484-.963.99-1.445 2.175-1.445 3.555 0 1.38.482 2.552 1.445 3.516.964.963 2.136 1.445 3.516 1.445s2.565-.482 3.555-1.445c.99-.964 1.484-2.136 1.484-3.516s-.495-2.565-1.484-3.555C17.526 60.494 16.34 60 14.96 60zm0-40c-1.38 0-2.551.495-3.515 1.484-.963.99-1.445 2.175-1.445 3.555 0 1.38.482 2.552 1.445 3.516.964.963 2.136 1.445 3.516 1.445s2.565-.482 3.555-1.445c.99-.964 1.484-2.136 1.484-3.516s-.495-2.565-1.484-3.555C17.526 20.494 16.34 20 14.96 20zM65 30c1.354 0 2.526-.482 3.516-1.445.99-.964 1.484-2.136 1.484-3.516s-.495-2.565-1.484-3.555C67.526 20.494 66.354 20 65 20H35c-1.406 0-2.591.495-3.555 1.484-.963.99-1.445 2.175-1.445 3.555 0 1.38.482 2.552 1.445 3.516C32.41 29.518 33.594 30 35 30h30zM35 60c-1.406 0-2.591.495-3.555 1.484-.963.99-1.445 2.175-1.445 3.555 0 1.38.482 2.552 1.445 3.516C32.41 69.518 33.594 70 35 70h30c1.354 0 2.526-.482 3.516-1.445.99-.964 1.484-2.136 1.484-3.516s-.495-2.565-1.484-3.555C67.526 60.494 66.354 60 65 60H35z" fill="#4299FF"/></svg>