<svg width="82" height="82" fill="none" xmlns="http://www.w3.org/2000/svg"><path fill-rule="evenodd" clip-rule="evenodd" d="M.75 41a40.25 40.25 0 1080.5 0 40.25 40.25 0 00-80.5 0zm73.6 0a33.35 33.35 0 11-66.7 0 33.35 33.35 0 0166.7 0z" fill="#FF8A00"/><path fill-rule="evenodd" clip-rule="evenodd" d="M23.75 41c0 20.801 6.859 37.95 17.25 37.95S58.25 61.8 58.25 41c0-20.801-6.859-37.95-17.25-37.95S23.75 20.199 23.75 41zm27.6 0c0 17.305-5.497 31.05-10.35 31.05S30.65 58.305 30.65 41 36.147 9.95 41 9.95 51.35 23.695 51.35 41z" fill="#FF8A00"/><path d="M11.57 20.148l4.627-5.115c.46.414.961.828 1.495 1.228 5.846 4.38 15.18 7.084 25.369 7.084 8.698 0 16.799-1.964 22.682-5.327a24.37 24.37 0 003.768-2.622l4.48 5.249a30.958 30.958 0 01-4.82 3.358c-6.974 3.992-16.257 6.237-26.11 6.237-11.601 0-22.38-3.118-29.51-8.46a27.879 27.879 0 01-1.982-1.632zm0 41.777l4.627 5.116c.46-.419.961-.828 1.495-1.229 5.846-4.379 15.18-7.084 25.369-7.084 8.698 0 16.799 1.965 22.682 5.327a24.37 24.37 0 013.768 2.622l4.48-5.248a31.475 31.475 0 00-4.82-3.358c-6.974-3.993-16.257-6.238-26.11-6.238-11.601 0-22.38 3.119-29.51 8.46a27.879 27.879 0 00-1.982 1.632zM3.05 44.45v-6.9h75.9v6.9H3.05z" fill="#FF8A00"/></svg>