<svg width="50" height="56" fill="none" xmlns="http://www.w3.org/2000/svg"><path d="M.052 30.09h14.991a5 5 0 015 5V51a5 5 0 01-5 5h-9.99a5 5 0 01-5-5V30.09zM20.043.228C2.78 5.773-.477 22.446.053 30.09h13.252c.35-14.834 8.295-16.713 11.569-18.3 2.619-1.27 2.278-3.746 1.78-4.825L23.92 1.36C23.697.68 22.61-.499 20.042.227zm2.011 29.862h21.367a5 5 0 015 5V51a5 5 0 01-5 5H27.054a5 5 0 01-5-5V30.09z" fill="#1D2D64"/><path d="M42.785.228c-17.903 5.545-21.28 22.218-20.73 29.862h13.743c.363-14.834 8.602-16.713 11.997-18.3 2.716-1.27 2.362-3.746 1.846-4.825L46.806 1.36c-.23-.68-1.357-1.859-4.02-1.133z" fill="#1D2D64"/></svg>